<?xml version="1.0" encoding="utf-8"?>
<!-- Generator: Adobe Illustrator 16.0.0, SVG Export Plug-In . SVG Version: 6.00 Build 0)  -->
<!DOCTYPE svg PUBLIC "-//W3C//DTD SVG 1.1//EN" "http://www.w3.org/Graphics/SVG/1.1/DTD/svg11.dtd">
<svg version="1.1" xmlns="http://www.w3.org/2000/svg" xmlns:xlink="http://www.w3.org/1999/xlink" x="0px" y="0px" width="256px"
	 height="256px" viewBox="0 0 256 256" enable-background="new 0 0 256 256" xml:space="preserve">
<g id="Capa_21" display="none">
</g>
<g id="Capa_15">
	<path fill="#5D5C5C" d="M232.462,255.621c-25.613-0.265-200.963,0.436-200.963,0.436S8.03,257.706-0.25,231.992V27.682
		c0,0,1.381-22.584,25.876-26.06c24.496-3.476,202.521,0,202.521,0s23.807,0,27.603,27.45v198.75
		C255.75,227.822,248.165,255.784,232.462,255.621z"/>
	<path fill="#5D5C5C" d="M48.781,124.664"/>
	<path fill="#5D5C5C" d="M7.204,124.664"/>
</g>
<g id="Capa_16">
	<path fill="#383838" stroke="#9F9A9C" stroke-width="1.0387" stroke-miterlimit="10" d="M7.339,32.2
		c0,0,5.864-22.587,24.841-25.714c18.976-3.127,190.101,0,190.101,0s22.771,6.256,25.876,25.714c3.105,19.457,0,188.325,0,188.325
		s-1.035,20.502-25.876,29.188H33.561c0,0-25.878-7.293-26.221-29.533C6.996,197.939,7.339,32.2,7.339,32.2z"/>
</g>
<g id="Capa_22">
	
		<line fill="none" stroke="#C6C1C1" stroke-width="2.0774" stroke-miterlimit="10" x1="7.208" y1="129.141" x2="48.318" y2="129.141"/>
	
		<line fill="none" stroke="#C6C1C1" stroke-width="2.0774" stroke-miterlimit="10" x1="7.186" y1="135.741" x2="48.318" y2="135.741"/>
	
		<line fill="none" stroke="#C6C1C1" stroke-width="2.0774" stroke-miterlimit="10" x1="208.401" y1="129.141" x2="249.423" y2="129.141"/>
	
		<line fill="none" stroke="#C6C1C1" stroke-width="2.0774" stroke-miterlimit="10" x1="208.401" y1="135.741" x2="249.374" y2="135.741"/>
</g>
<g id="Capa_17">
	<path fill="#C6C1C1" d="M24.246,43.667h43.471c0,0,14.145-9.732,0-23.629H24.246C24.246,20.038,7.339,33.243,24.246,43.667z"/>
</g>
<g id="Capa_18">
	<ellipse fill="#544E4F" cx="216.243" cy="40.71" rx="18.802" ry="18.936"/>
</g>
<g id="Capa_19">
	<path fill="#928F90" d="M232.462,40.71c0,9.021-7.262,16.332-16.221,16.332c-8.952,0-16.213-7.311-16.213-16.332
		c0-9.021,7.261-16.333,16.213-16.333C225.2,24.378,232.462,31.689,232.462,40.71z"/>
</g>
<g id="Capa_6">
	<path fill="#8598C4" stroke="#22314F" stroke-width="1.0387" stroke-miterlimit="10" d="M62.162,161.402l31.233-31.498l3.24,68.463
		c0,0-19.813-6.214-35.222-36.207"/>
</g>
<g id="Capa_7">
	<path fill="#8F80B6" d="M61.414,104.406h48.297L59.599,154.7c0,0-9.958-19.651,1.393-50.294"/>
</g>
<g id="Capa_8">
	<path fill="#AE7D9B" d="M63.652,98.693h72.604l-35.121-34.466C101.135,64.228,81.096,69.948,63.652,98.693z"/>
</g>
<g id="Capa_9">
	<path fill="#A17E80" d="M107.897,61.831l50.409,48.744V64.924C158.307,64.924,134.057,53.596,107.897,61.831z"/>
	<path fill="#DB9988" d="M164.752,69.036v70.744l31.415-34.666C196.167,105.115,186.924,78.495,164.752,69.036z"/>
</g>
<g id="Capa_10">
	<path fill="#D7D088" d="M199.604,112.505l-46.961,50.306l44.163-3.608C196.806,159.203,207.811,137.053,199.604,112.505z"/>
	<path fill="#B9B89E" d="M194.404,166.387l-66.044,4.649l30.845,29.22C159.205,200.256,184.555,187.438,194.404,166.387z"/>
</g>
<g id="Capa_11">
	<path fill="#80AEC0" d="M152.643,202.854l-51.507-47.445l1.813,46.656C102.949,202.064,131.459,211.226,152.643,202.854z"/>
</g>
<g id="Capa_3">
	<polyline fill="none" stroke="#C6C1C1" stroke-width="2.0774" stroke-miterlimit="10" points="159.205,200.256 128.36,171.036 
		194.404,166.387 	"/>
	<polyline fill="none" stroke="#C6C1C1" stroke-width="2.0774" stroke-miterlimit="10" points="152.643,202.854 101.135,155.408 
		102.949,202.064 	"/>
	<polyline fill="none" stroke="#C6C1C1" stroke-width="2.0774" stroke-miterlimit="10" points="96.682,199.344 93.376,129.497 
		61.414,162.16 	"/>
	<polyline fill="none" stroke="#C6C1C1" stroke-width="2.0774" stroke-miterlimit="10" points="58.897,155.408 109.711,104.406 
		61.414,104.406 	"/>
	<polyline fill="none" stroke="#C6C1C1" stroke-width="2.0774" stroke-miterlimit="10" points="101.135,64.228 136.256,98.693 
		63.652,98.693 	"/>
	<polyline fill="none" stroke="#C6C1C1" stroke-width="2.0774" stroke-miterlimit="10" points="158.307,64.924 158.307,110.575 
		107.897,61.831 	"/>
	<polyline fill="none" stroke="#C6C1C1" stroke-width="2.0774" stroke-miterlimit="10" points="164.752,68.145 164.752,139.78 
		196.806,104.406 	"/>
	<polyline fill="none" stroke="#C6C1C1" stroke-width="2.0774" stroke-miterlimit="10" points="199.604,112.505 152.643,162.812 
		197.606,159.139 	"/>
	<g id="Capa_2">
		<path fill="none" stroke="#C6C1C1" stroke-width="2.0774" stroke-miterlimit="10" d="M208.401,133.331
			c0,44.521-35.83,80.614-80.042,80.614c-44.208,0-80.042-36.093-80.042-80.614c0-44.52,35.834-80.611,80.042-80.611
			C172.571,52.72,208.401,88.811,208.401,133.331z"/>
		<path fill="none" stroke="#C6C1C1" stroke-width="2.0774" stroke-miterlimit="10" d="M202.409,132.785
			c0,40.89-32.911,74.035-73.506,74.035c-40.599,0-73.512-33.146-73.512-74.035c0-40.888,32.913-74.032,73.512-74.032
			C169.498,58.753,202.409,91.897,202.409,132.785z"/>
	</g>
</g>
<g id="Capa_5">
	<path fill="#C6C1C1" d="M146.565,122.027c-0.234,2.325-1.908,0-1.908,0s-12.972-4.807-13.769-5.019c-0.792-0.22-1.827,0-1.827,0
		c-1.033,0.024-13.925,4.536-14.56,5.019c-0.639,0.484,0.954,0.161-0.398,0.961c-1.352,0.802-1.114-0.961-1.114-0.961l9.704-5.849
		c0,0,4.773-4.084,4.698-5.045c-0.081-0.963,3.894-0.963,4.294,0c0.397,0.961,3.576,4.243,5.25,5.085
		c1.665,0.843,9.314,5.169,9.314,5.169L146.565,122.027z"/>
	<path fill="#C6C1C1" d="M129.201,109.765h1.039v-1.291c0,0,5.284-2.657,0-5.961c0,0-3.441-0.485-3.284,3.143
		c0,0,0.803,0.886,0.964-0.484c0.16-1.37,1.761-1.612,2.319-1.452c0.56,0.161,2.48,1.533,0,3.587c0,0-0.799,0.202-1.12,1.411
		C128.8,109.928,129.201,109.765,129.201,109.765z"/>
</g>
<g id="Capa_13">
	<path fill="#4F4894" stroke="#8E80B6" stroke-width="1.0387" stroke-miterlimit="10" d="M109.63,126.567
		c0,0,2.108-1.612,3.239-3.225c1.126-1.613,2.286-3.665,2.871-4.544c0.584-0.879,2.48-3.372,3.934-3.225
		c1.456,0.147,3.35,0.135,4.223-0.006c0.874-0.141,0.144,3.231,2.327,3.966c2.184,0.731,5.533,1.613,7.422-0.588
		c1.899-2.199,1.022-3.381,1.022-3.381s4.799-0.601,5.968,0c1.16,0.596,3.788,4.275,4.661,5.367
		c0.874,1.095,1.747,3.146,2.758,4.171c1.027,1.026,2.046,1.173,1.536,2.203c-0.509,1.022-1.383,1.608-2.401,2.781
		c-1.019,1.172-3.643,3.815-5.394,0.879c-1.746-2.932-0.138,7.33-0.138,9.675c0,2.346,0,14.81,0,14.81s-4.807,0.586-7.14,0.366
		c-2.325-0.216-9.823-0.118-9.966,0.054c-0.148,0.166-6.479,1.192-6.479-1.3c0-2.491-0.293-16.344,0-18.104
		c0.291-1.759,0.507-6.453,0.655-7.04c0.146-0.586-1.167,2.639-1.747,2.785c-0.583,0.146-2.62,0.225-2.913-0.509
		c-0.289-0.737-2.254-1.91-2.473-2.276C111.375,129.063,108.9,128.767,109.63,126.567z"/>
</g>
<g id="Capa_20">
	<ellipse fill="#C6C1C1" cx="216.069" cy="40.537" rx="12.075" ry="12.161"/>
</g>
</svg>
