<?xml version="1.0" encoding="utf-8"?>
<!-- Generator: Adobe Illustrator 16.0.0, SVG Export Plug-In . SVG Version: 6.00 Build 0)  -->
<!DOCTYPE svg PUBLIC "-//W3C//DTD SVG 1.1//EN" "http://www.w3.org/Graphics/SVG/1.1/DTD/svg11.dtd">
<svg version="1.1" xmlns="http://www.w3.org/2000/svg" xmlns:xlink="http://www.w3.org/1999/xlink" x="0px" y="0px" width="64px"
	 height="64px" viewBox="0 0 64 64" enable-background="new 0 0 64 64" xml:space="preserve">
<g id="Capa_21">
</g>
<g id="Capa_15">
	<path fill="#5D5C5C" d="M57.042,62.667c-6.187-0.063-48.54,0.104-48.54,0.104S2.833,63.167,0.833,57V8c0,0,0.333-5.417,6.25-6.25
		S56,1.75,56,1.75s5.75,0,6.667,6.583V56C62.667,56,60.835,62.706,57.042,62.667z"/>
	<path fill="#5D5C5C" d="M71.667,42"/>
	<path fill="#5D5C5C" d="M72.417,47.166"/>
	<path fill="#5D5C5C" d="M77.583,28.021"/>
	<path fill="#5D5C5C" d="M12.676,31.259"/>
	<path fill="#5D5C5C" d="M2.634,31.259"/>
</g>
<g id="Capa_16">
	<path fill="#383838" stroke="#9F9A9C" stroke-width="0.25" stroke-miterlimit="10" d="M2.667,9.083c0,0,1.417-5.417,6-6.167
		s45.917,0,45.917,0s5.5,1.5,6.25,6.167s0,45.167,0,45.167s-0.25,4.917-6.25,7H9c0,0-6.25-1.749-6.333-7.083
		S2.667,9.083,2.667,9.083z"/>
	<path fill="#383838" stroke="#9F9A9C" stroke-width="0.25" stroke-miterlimit="10" d="M79,19.667"/>
</g>
<g id="Capa_22">
	<line fill="none" stroke="#C6C1C1" stroke-width="0.5" stroke-miterlimit="10" x1="2.635" y1="32.333" x2="12.564" y2="32.333"/>
	<line fill="none" stroke="#C6C1C1" stroke-width="0.5" stroke-miterlimit="10" x1="2.629" y1="33.916" x2="12.564" y2="33.916"/>
	<line fill="none" stroke="#C6C1C1" stroke-width="0.5" stroke-miterlimit="10" x1="51.23" y1="32.333" x2="61.139" y2="32.333"/>
	<line fill="none" stroke="#C6C1C1" stroke-width="0.5" stroke-miterlimit="10" x1="51.23" y1="33.916" x2="61.127" y2="33.916"/>
</g>
<g id="Capa_17">
	<path fill="#C6C1C1" d="M6.75,11.833h10.5c0,0,3.417-2.334,0-5.667H6.75C6.75,6.167,2.667,9.333,6.75,11.833z"/>
</g>
<g id="Capa_18">
	<circle fill="#544E4F" cx="53.125" cy="11.125" r="4.542"/>
</g>
<g id="Capa_19">
	<circle fill="#928F90" cx="53.125" cy="11.125" r="3.917"/>
</g>
<g id="Capa_6">
	<path fill="#8598C4" stroke="#22314F" stroke-width="0.25" stroke-miterlimit="10" d="M15.908,40.07l7.544-7.554l0.783,16.419
		c0,0-4.786-1.49-8.507-8.684"/>
</g>
<g id="Capa_7">
	<path fill="#8F80B6" d="M15.728,26.401h11.666L15.289,38.463c0,0-2.405-4.713,0.336-12.062"/>
</g>
<g id="Capa_8">
	<path fill="#AE7D9B" d="M16.268,25.031h17.537l-8.483-8.266C25.322,16.765,20.481,18.137,16.268,25.031z"/>
</g>
<g id="Capa_9">
	<path fill="#A17E80" d="M26.955,16.19l12.176,11.69V16.932C39.131,16.932,33.273,14.215,26.955,16.19z"/>
	<path fill="#DB9988" d="M40.688,17.918v16.967l7.588-8.314C48.275,26.571,46.043,20.187,40.688,17.918z"/>
</g>
<g id="Capa_10">
	<path fill="#D7D088" d="M49.105,28.343L37.763,40.408l10.667-0.865C48.43,39.543,51.088,34.23,49.105,28.343z"/>
	<path fill="#B9B89E" d="M47.85,41.266l-15.952,1.115l7.45,7.008C39.348,49.389,45.471,46.314,47.85,41.266z"/>
</g>
<g id="Capa_11">
	<path fill="#80AEC0" d="M37.763,50.012L25.322,38.633l0.438,11.189C25.76,49.822,32.646,52.02,37.763,50.012z"/>
</g>
<g id="Capa_3">
	<polyline fill="none" stroke="#C6C1C1" stroke-width="0.5" stroke-miterlimit="10" points="39.348,49.389 31.897,42.381 
		47.85,41.266 	"/>
	<polyline fill="none" stroke="#C6C1C1" stroke-width="0.5" stroke-miterlimit="10" points="37.763,50.012 25.322,38.633 
		25.76,49.822 	"/>
	<polyline fill="none" stroke="#C6C1C1" stroke-width="0.5" stroke-miterlimit="10" points="24.246,49.17 23.448,32.418 
		15.728,40.252 	"/>
	<polyline fill="none" stroke="#C6C1C1" stroke-width="0.5" stroke-miterlimit="10" points="15.12,38.633 27.393,26.401 
		15.728,26.401 	"/>
	<polyline fill="none" stroke="#C6C1C1" stroke-width="0.5" stroke-miterlimit="10" points="25.322,16.765 33.805,25.031 
		16.268,25.031 	"/>
	<polyline fill="none" stroke="#C6C1C1" stroke-width="0.5" stroke-miterlimit="10" points="39.131,16.932 39.131,27.88 
		26.955,16.19 	"/>
	<polyline fill="none" stroke="#C6C1C1" stroke-width="0.5" stroke-miterlimit="10" points="40.688,17.704 40.688,34.885 
		48.43,26.401 	"/>
	<polyline fill="none" stroke="#C6C1C1" stroke-width="0.5" stroke-miterlimit="10" points="49.105,28.343 37.763,40.408 
		48.623,39.527 	"/>
	<g id="Capa_2">
		<circle fill="none" stroke="#C6C1C1" stroke-width="0.5" stroke-miterlimit="10" cx="31.897" cy="33.338" r="19.333"/>
		<circle fill="none" stroke="#C6C1C1" stroke-width="0.5" stroke-miterlimit="10" cx="32.028" cy="33.207" r="17.755"/>
	</g>
</g>
<g id="Capa_5">
	<path fill="#C6C1C1" d="M36.295,30.627c-0.057,0.558-0.461,0-0.461,0s-3.133-1.153-3.326-1.204c-0.191-0.053-0.441,0-0.441,0
		c-0.25,0.006-3.363,1.088-3.517,1.204c-0.154,0.116,0.23,0.039-0.096,0.23c-0.327,0.192-0.269-0.23-0.269-0.23l2.344-1.403
		c0,0,1.153-0.979,1.135-1.21c-0.02-0.231,0.94-0.231,1.037,0c0.096,0.23,0.864,1.018,1.268,1.22c0.402,0.202,2.25,1.24,2.25,1.24
		L36.295,30.627z"/>
	<path fill="#C6C1C1" d="M32.101,27.686h0.251v-0.31c0,0,1.276-0.637,0-1.43c0,0-0.831-0.116-0.793,0.754
		c0,0,0.194,0.212,0.233-0.116c0.039-0.329,0.425-0.387,0.56-0.348c0.135,0.039,0.599,0.368,0,0.86c0,0-0.193,0.048-0.271,0.338
		C32.004,27.725,32.101,27.686,32.101,27.686z"/>
</g>
<g id="Capa_13">
	<path fill="#4F4894" stroke="#8E80B6" stroke-width="0.25" stroke-miterlimit="10" d="M27.374,31.716c0,0,0.509-0.387,0.782-0.773
		c0.272-0.387,0.552-0.879,0.693-1.09s0.599-0.809,0.95-0.773c0.352,0.035,0.809,0.032,1.02-0.001s0.035,0.775,0.562,0.951
		c0.527,0.175,1.336,0.387,1.792-0.141c0.459-0.527,0.247-0.811,0.247-0.811s1.159-0.144,1.441,0
		c0.28,0.143,0.915,1.025,1.126,1.287c0.211,0.263,0.422,0.754,0.666,1c0.248,0.246,0.494,0.281,0.371,0.528
		c-0.123,0.245-0.334,0.386-0.58,0.667s-0.88,0.915-1.303,0.211c-0.422-0.703-0.033,1.758-0.033,2.32s0,3.552,0,3.552
		s-1.161,0.141-1.725,0.088c-0.562-0.052-2.373-0.028-2.407,0.013c-0.036,0.04-1.565,0.286-1.565-0.312s-0.071-3.92,0-4.342
		c0.07-0.422,0.123-1.548,0.158-1.688c0.035-0.141-0.282,0.633-0.422,0.668c-0.141,0.035-0.633,0.054-0.704-0.122
		c-0.07-0.177-0.544-0.458-0.597-0.546C27.795,32.314,27.197,32.243,27.374,31.716z"/>
</g>
<g id="Capa_20">
	<circle fill="#C6C1C1" cx="53.083" cy="11.083" r="2.917"/>
</g>
</svg>
